<svg xmlns="http://www.w3.org/2000/svg" xmlns:xlink="http://www.w3.org/1999/xlink" version="1.1" x="0px" y="0px" viewBox="0 0 100 125" enable-background="new 0 0 100 100" xml:space="preserve"><g><path d="M73.895,83.376H27.412V37.307c0-12.312,10.426-22.329,23.242-22.329s23.241,10.017,23.241,22.329V83.376z M30.736,80.052   h39.834V37.307c0-10.479-8.935-19.004-19.917-19.004s-19.917,8.525-19.917,19.004V80.052z"/></g><path d="M83.981,84.946c0-2.604-2.111-4.716-4.716-4.716c-1.114,0-2.136,0.388-2.942,1.034c-0.458-3.686-3.596-6.542-7.406-6.542  c-0.557,0-1.097,0.066-1.619,0.181c-0.436-2.818-2.866-4.977-5.806-4.977c-2.683,0-4.942,1.798-5.649,4.253  c-0.966-2.74-3.571-4.707-6.641-4.707c-0.718,0-1.411,0.109-2.064,0.309c-1.434-2.318-3.998-3.863-6.923-3.863  c-3.151,0-5.882,1.793-7.234,4.413c-1.423-0.891-3.105-1.408-4.908-1.408c-5.115,0-9.262,4.147-9.262,9.262v6.384"/></svg>
