<svg xmlns:dc="http://purl.org/dc/elements/1.1/" xmlns:cc="http://creativecommons.org/ns#" xmlns:rdf="http://www.w3.org/1999/02/22-rdf-syntax-ns#" xmlns:svg="http://www.w3.org/2000/svg" xmlns="http://www.w3.org/2000/svg" xmlns:sodipodi="http://sodipodi.sourceforge.net/DTD/sodipodi-0.dtd" xmlns:inkscape="http://www.inkscape.org/namespaces/inkscape" version="1.1" x="0px" y="0px" viewBox="0 0 100 125"><g transform="translate(0,-952.36218)"><path style="text-indent:0;text-transform:none;direction:ltr;block-progression:tb;baseline-shift:baseline;color:#000000;enable-background:accumulate;" d="m 75.2343,968.15907 c -4.6791,0 -9.4009,1.52925 -13,4.65625 -3.5986,3.12699 -6,7.89358 -6,13.93748 l 0,5 c -2.0495,-0.6456 -4.196,-0.9687 -6.3437,-0.9687 -2.1905,0 -4.3824,0.3281 -6.4687,1 -0.8193,-4.5439 -3.1074,-8.1616 -6.1876,-10.625 -3.4183,-2.7342 -7.7474,-4.11011 -12.0624,-4.18753 -0.2878,-0.005 -0.5563,-0.006 -0.8438,0 -4.6002,0.10038 -9.2173,1.68343 -12.7188,4.81253 -3.5012,3.129 -5.8124,7.8658 -5.8124,13.8125 l 0,24.7812 c 0.082,1.8281 0.7704,2.2377 2.4062,2.375 l 22.6875,0 0,11.8125 c 0.082,1.4229 1.2791,1.9091 2.2813,2 l 33.3437,0 c 1.7907,-0.03 2.2726,-0.8193 2.375,-2.25 l 0,-20.3437 22.9375,0 c 1.8662,-0.1041 2.2419,-0.8211 2.375,-2.4063 l 0,-24.8125 c 0,-6.0439 -2.4011,-10.81048 -6,-13.93748 -3.5989,-3.127 -8.2895,-4.65625 -12.9688,-4.65625 z m 0,4 c 3.8106,0 7.5754,1.25084 10.3438,3.65625 2.7684,2.40538 4.625,5.91668 4.625,10.93748 l 0,23.2188 -21.3125,0 0,-0.5938 c 0,-6.0445 -2.3973,-10.842 -6,-13.9687 -0.8366,-0.7261 -1.7143,-1.3531 -2.6563,-1.9063 l 0,-6.75 c 0,-5.0208 1.8569,-8.5321 4.625,-10.93748 2.7685,-2.40541 6.5647,-3.65625 10.375,-3.65625 z m -50.8437,8.81253 c 3.7455,-0.082 7.5299,1.062 10.3437,3.3125 2.59,2.0713 4.4075,5.0647 4.875,9.2187 -0.9502,0.5563 -1.8754,1.1744 -2.7187,1.9063 -3.6028,3.1267 -6,7.9242 -6,13.9687 l 0,9.375 -21.0937,0 0,-23.1562 c 0,-4.941 1.8092,-8.4392 4.5,-10.8438 2.6907,-2.4046 6.3482,-3.6995 10.0937,-3.7812 z" fill="#000000" fill-opacity="1" fill-rule="evenodd" stroke="none" marker="none" visibility="visible" display="inline" overflow="visible"/></g></svg>
