<svg xmlns="http://www.w3.org/2000/svg" xmlns:xlink="http://www.w3.org/1999/xlink" version="1.1" x="0px" y="0px" viewBox="-54 381.4 90 112.5" style="enable-background:new -54 381.4 90 90;" xml:space="preserve"><path d="M25.2,450.9c-2.1-2.9-8.2-5.3-16.5-6.8v-27c0-9.8-7.9-17.7-17.7-17.7s-17.8,8-17.8,17.8v26.9c-8.3,1.5-14.4,3.9-16.5,6.8  c-0.9,1.2-0.3,2.2,1.2,2.2H24C25.5,453.1,26.1,452.1,25.2,450.9z M4.7,443.4c-4.2-0.5-8.9-0.8-13.7-0.8c-4.9,0-9.5,0.3-13.8,0.8  v-26.3c0-7.5,6.2-13.7,13.8-13.7s13.8,6.2,13.8,13.8L4.7,443.4L4.7,443.4z"/></svg>
